<mxfile host="app.diagrams.net" agent="Mozilla/5.0 (Windows NT 10.0; Win64; x64) AppleWebKit/537.36 (KHTML, like Gecko) Chrome/136.0.0.0 Safari/537.36 Edg/136.0.0.0" version="27.1.4">
  <diagram name="第 1 页" id="IcxVNTgkz_r5w6ko9HXI">
    <mxGraphModel dx="2018" dy="1112" grid="1" gridSize="10" guides="1" tooltips="1" connect="1" arrows="1" fold="1" page="1" pageScale="1" pageWidth="827" pageHeight="1169" math="0" shadow="0">
      <root>
        <mxCell id="0" />
        <mxCell id="1" parent="0" />
        <mxCell id="Mtznmg6a9FA5QhOzfQ1I-1" value="Pool" style="swimlane;childLayout=stackLayout;resizeParent=1;resizeParentMax=0;startSize=20;horizontal=0;horizontalStack=1;" parent="1" vertex="1">
          <mxGeometry x="220" y="180" width="386" height="400" as="geometry" />
        </mxCell>
        <mxCell id="Mtznmg6a9FA5QhOzfQ1I-2" value="测试同事" style="swimlane;startSize=20;" parent="Mtznmg6a9FA5QhOzfQ1I-1" vertex="1">
          <mxGeometry x="20" width="126" height="400" as="geometry" />
        </mxCell>
        <mxCell id="ozxFrXHDLp-UPnvrvD1m-2" style="edgeStyle=orthogonalEdgeStyle;rounded=0;orthogonalLoop=1;jettySize=auto;html=1;exitX=0.5;exitY=1;exitDx=0;exitDy=0;entryX=0.5;entryY=0;entryDx=0;entryDy=0;" edge="1" parent="Mtznmg6a9FA5QhOzfQ1I-2" source="Mtznmg6a9FA5QhOzfQ1I-15" target="ozxFrXHDLp-UPnvrvD1m-1">
          <mxGeometry relative="1" as="geometry" />
        </mxCell>
        <mxCell id="Mtznmg6a9FA5QhOzfQ1I-15" value="打开debug模式" style="rounded=1;whiteSpace=wrap;html=1;" parent="Mtznmg6a9FA5QhOzfQ1I-2" vertex="1">
          <mxGeometry x="16" y="70" width="94" height="50" as="geometry" />
        </mxCell>
        <mxCell id="ozxFrXHDLp-UPnvrvD1m-1" value="界面操作" style="rounded=1;whiteSpace=wrap;html=1;" vertex="1" parent="Mtznmg6a9FA5QhOzfQ1I-2">
          <mxGeometry x="16" y="190" width="94" height="50" as="geometry" />
        </mxCell>
        <mxCell id="Mtznmg6a9FA5QhOzfQ1I-3" value="车端SDK" style="swimlane;startSize=20;" parent="Mtznmg6a9FA5QhOzfQ1I-1" vertex="1">
          <mxGeometry x="146" width="120" height="400" as="geometry" />
        </mxCell>
        <mxCell id="Mtznmg6a9FA5QhOzfQ1I-17" value="&lt;span style=&quot;&quot;&gt;实时上报埋点&lt;/span&gt;" style="rounded=1;whiteSpace=wrap;html=1;align=center;" parent="Mtznmg6a9FA5QhOzfQ1I-3" vertex="1">
          <mxGeometry x="13" y="190" width="94" height="50" as="geometry" />
        </mxCell>
        <mxCell id="Mtznmg6a9FA5QhOzfQ1I-4" value="埋点接口" style="swimlane;startSize=20;" parent="Mtznmg6a9FA5QhOzfQ1I-1" vertex="1">
          <mxGeometry x="266" width="120" height="400" as="geometry" />
        </mxCell>
        <mxCell id="Mtznmg6a9FA5QhOzfQ1I-18" value="开发环境" style="rounded=1;whiteSpace=wrap;html=1;align=center;" parent="Mtznmg6a9FA5QhOzfQ1I-4" vertex="1">
          <mxGeometry x="13" y="70" width="94" height="50" as="geometry" />
        </mxCell>
        <mxCell id="Mtznmg6a9FA5QhOzfQ1I-19" value="测试环境" style="rounded=1;whiteSpace=wrap;html=1;align=center;" parent="Mtznmg6a9FA5QhOzfQ1I-4" vertex="1">
          <mxGeometry x="13" y="150" width="94" height="50" as="geometry" />
        </mxCell>
        <mxCell id="Mtznmg6a9FA5QhOzfQ1I-20" value="准上线环境" style="rounded=1;whiteSpace=wrap;html=1;align=center;" parent="Mtznmg6a9FA5QhOzfQ1I-4" vertex="1">
          <mxGeometry x="13" y="230" width="94" height="50" as="geometry" />
        </mxCell>
        <mxCell id="Mtznmg6a9FA5QhOzfQ1I-21" value="生产环境" style="rounded=1;whiteSpace=wrap;html=1;align=center;" parent="Mtznmg6a9FA5QhOzfQ1I-4" vertex="1">
          <mxGeometry x="13" y="310" width="94" height="50" as="geometry" />
        </mxCell>
        <mxCell id="Mtznmg6a9FA5QhOzfQ1I-23" style="edgeStyle=orthogonalEdgeStyle;rounded=0;orthogonalLoop=1;jettySize=auto;html=1;exitX=1;exitY=0.5;exitDx=0;exitDy=0;entryX=0;entryY=0.5;entryDx=0;entryDy=0;" parent="Mtznmg6a9FA5QhOzfQ1I-1" source="Mtznmg6a9FA5QhOzfQ1I-17" target="Mtznmg6a9FA5QhOzfQ1I-18" edge="1">
          <mxGeometry relative="1" as="geometry">
            <Array as="points">
              <mxPoint x="259" y="215" />
              <mxPoint x="259" y="95" />
            </Array>
          </mxGeometry>
        </mxCell>
        <mxCell id="Mtznmg6a9FA5QhOzfQ1I-24" style="edgeStyle=orthogonalEdgeStyle;rounded=0;orthogonalLoop=1;jettySize=auto;html=1;exitX=1;exitY=0.5;exitDx=0;exitDy=0;entryX=0;entryY=0.5;entryDx=0;entryDy=0;" parent="Mtznmg6a9FA5QhOzfQ1I-1" source="Mtznmg6a9FA5QhOzfQ1I-17" target="Mtznmg6a9FA5QhOzfQ1I-19" edge="1">
          <mxGeometry relative="1" as="geometry" />
        </mxCell>
        <mxCell id="Mtznmg6a9FA5QhOzfQ1I-25" style="edgeStyle=orthogonalEdgeStyle;rounded=0;orthogonalLoop=1;jettySize=auto;html=1;exitX=1;exitY=0.5;exitDx=0;exitDy=0;entryX=0;entryY=0.5;entryDx=0;entryDy=0;" parent="Mtznmg6a9FA5QhOzfQ1I-1" source="Mtznmg6a9FA5QhOzfQ1I-17" target="Mtznmg6a9FA5QhOzfQ1I-20" edge="1">
          <mxGeometry relative="1" as="geometry">
            <Array as="points">
              <mxPoint x="253" y="220" />
              <mxPoint x="273" y="220" />
              <mxPoint x="273" y="255" />
            </Array>
          </mxGeometry>
        </mxCell>
        <mxCell id="Mtznmg6a9FA5QhOzfQ1I-26" style="edgeStyle=orthogonalEdgeStyle;rounded=0;orthogonalLoop=1;jettySize=auto;html=1;exitX=1;exitY=0.5;exitDx=0;exitDy=0;entryX=0;entryY=0.5;entryDx=0;entryDy=0;" parent="Mtznmg6a9FA5QhOzfQ1I-1" source="Mtznmg6a9FA5QhOzfQ1I-17" target="Mtznmg6a9FA5QhOzfQ1I-21" edge="1">
          <mxGeometry relative="1" as="geometry">
            <Array as="points">
              <mxPoint x="259" y="215" />
              <mxPoint x="259" y="335" />
            </Array>
          </mxGeometry>
        </mxCell>
        <mxCell id="ozxFrXHDLp-UPnvrvD1m-3" style="edgeStyle=orthogonalEdgeStyle;rounded=0;orthogonalLoop=1;jettySize=auto;html=1;exitX=1;exitY=0.5;exitDx=0;exitDy=0;entryX=0;entryY=0.5;entryDx=0;entryDy=0;" edge="1" parent="Mtznmg6a9FA5QhOzfQ1I-1" source="ozxFrXHDLp-UPnvrvD1m-1" target="Mtznmg6a9FA5QhOzfQ1I-17">
          <mxGeometry relative="1" as="geometry" />
        </mxCell>
        <mxCell id="Mtznmg6a9FA5QhOzfQ1I-10" value="Openresty" style="swimlane;startSize=20;" parent="1" vertex="1">
          <mxGeometry x="606" y="180" width="120" height="400" as="geometry" />
        </mxCell>
        <mxCell id="Mtznmg6a9FA5QhOzfQ1I-27" value="filebeat采集" style="rounded=1;whiteSpace=wrap;html=1;align=center;" parent="Mtznmg6a9FA5QhOzfQ1I-10" vertex="1">
          <mxGeometry x="13" y="70" width="94" height="50" as="geometry" />
        </mxCell>
        <mxCell id="Mtznmg6a9FA5QhOzfQ1I-28" value="filebeat采集" style="rounded=1;whiteSpace=wrap;html=1;align=center;" parent="Mtznmg6a9FA5QhOzfQ1I-10" vertex="1">
          <mxGeometry x="13" y="150" width="94" height="50" as="geometry" />
        </mxCell>
        <mxCell id="Mtznmg6a9FA5QhOzfQ1I-29" value="filebeat采集" style="rounded=1;whiteSpace=wrap;html=1;align=center;" parent="Mtznmg6a9FA5QhOzfQ1I-10" vertex="1">
          <mxGeometry x="13" y="230" width="94" height="50" as="geometry" />
        </mxCell>
        <mxCell id="Mtznmg6a9FA5QhOzfQ1I-30" value="filebeat采集" style="rounded=1;whiteSpace=wrap;html=1;align=center;" parent="Mtznmg6a9FA5QhOzfQ1I-10" vertex="1">
          <mxGeometry x="13" y="310" width="94" height="50" as="geometry" />
        </mxCell>
        <mxCell id="Mtznmg6a9FA5QhOzfQ1I-11" value="Kafka" style="swimlane;startSize=20;" parent="1" vertex="1">
          <mxGeometry x="726" y="180" width="120" height="400" as="geometry" />
        </mxCell>
        <mxCell id="Mtznmg6a9FA5QhOzfQ1I-35" value="Topic" style="rounded=1;whiteSpace=wrap;html=1;align=center;" parent="Mtznmg6a9FA5QhOzfQ1I-11" vertex="1">
          <mxGeometry x="13" y="70" width="94" height="290" as="geometry" />
        </mxCell>
        <mxCell id="Mtznmg6a9FA5QhOzfQ1I-12" value="Flink" style="swimlane;startSize=20;" parent="1" vertex="1">
          <mxGeometry x="846" y="180" width="120" height="400" as="geometry" />
        </mxCell>
        <mxCell id="Mtznmg6a9FA5QhOzfQ1I-40" value="消费" style="rounded=1;whiteSpace=wrap;html=1;align=center;" parent="Mtznmg6a9FA5QhOzfQ1I-12" vertex="1">
          <mxGeometry x="13" y="70" width="94" height="290" as="geometry" />
        </mxCell>
        <mxCell id="Mtznmg6a9FA5QhOzfQ1I-13" value="ES" style="swimlane;startSize=20;" parent="1" vertex="1">
          <mxGeometry x="966" y="180" width="120" height="400" as="geometry" />
        </mxCell>
        <mxCell id="Mtznmg6a9FA5QhOzfQ1I-42" value="文本索引" style="rounded=1;whiteSpace=wrap;html=1;align=center;" parent="Mtznmg6a9FA5QhOzfQ1I-13" vertex="1">
          <mxGeometry x="13" y="70" width="94" height="290" as="geometry" />
        </mxCell>
        <mxCell id="Mtznmg6a9FA5QhOzfQ1I-31" style="edgeStyle=orthogonalEdgeStyle;rounded=0;orthogonalLoop=1;jettySize=auto;html=1;exitX=1;exitY=0.5;exitDx=0;exitDy=0;entryX=0;entryY=0.5;entryDx=0;entryDy=0;" parent="1" source="Mtznmg6a9FA5QhOzfQ1I-18" target="Mtznmg6a9FA5QhOzfQ1I-27" edge="1">
          <mxGeometry relative="1" as="geometry" />
        </mxCell>
        <mxCell id="Mtznmg6a9FA5QhOzfQ1I-32" style="edgeStyle=orthogonalEdgeStyle;rounded=0;orthogonalLoop=1;jettySize=auto;html=1;exitX=1;exitY=0.5;exitDx=0;exitDy=0;entryX=0;entryY=0.5;entryDx=0;entryDy=0;" parent="1" source="Mtznmg6a9FA5QhOzfQ1I-19" target="Mtznmg6a9FA5QhOzfQ1I-28" edge="1">
          <mxGeometry relative="1" as="geometry" />
        </mxCell>
        <mxCell id="Mtznmg6a9FA5QhOzfQ1I-33" style="edgeStyle=orthogonalEdgeStyle;rounded=0;orthogonalLoop=1;jettySize=auto;html=1;exitX=1;exitY=0.5;exitDx=0;exitDy=0;" parent="1" source="Mtznmg6a9FA5QhOzfQ1I-20" target="Mtznmg6a9FA5QhOzfQ1I-29" edge="1">
          <mxGeometry relative="1" as="geometry" />
        </mxCell>
        <mxCell id="Mtznmg6a9FA5QhOzfQ1I-34" style="edgeStyle=orthogonalEdgeStyle;rounded=0;orthogonalLoop=1;jettySize=auto;html=1;exitX=1;exitY=0.5;exitDx=0;exitDy=0;" parent="1" source="Mtznmg6a9FA5QhOzfQ1I-21" target="Mtznmg6a9FA5QhOzfQ1I-30" edge="1">
          <mxGeometry relative="1" as="geometry" />
        </mxCell>
        <mxCell id="Mtznmg6a9FA5QhOzfQ1I-36" style="edgeStyle=orthogonalEdgeStyle;rounded=0;orthogonalLoop=1;jettySize=auto;html=1;exitX=1;exitY=0.5;exitDx=0;exitDy=0;entryX=0;entryY=0.5;entryDx=0;entryDy=0;" parent="1" source="Mtznmg6a9FA5QhOzfQ1I-27" target="Mtznmg6a9FA5QhOzfQ1I-35" edge="1">
          <mxGeometry relative="1" as="geometry">
            <Array as="points">
              <mxPoint x="737" y="275" />
              <mxPoint x="737" y="395" />
            </Array>
          </mxGeometry>
        </mxCell>
        <mxCell id="Mtznmg6a9FA5QhOzfQ1I-37" style="edgeStyle=orthogonalEdgeStyle;rounded=0;orthogonalLoop=1;jettySize=auto;html=1;exitX=1;exitY=0.5;exitDx=0;exitDy=0;entryX=0;entryY=0.5;entryDx=0;entryDy=0;" parent="1" source="Mtznmg6a9FA5QhOzfQ1I-28" target="Mtznmg6a9FA5QhOzfQ1I-35" edge="1">
          <mxGeometry relative="1" as="geometry" />
        </mxCell>
        <mxCell id="Mtznmg6a9FA5QhOzfQ1I-38" style="edgeStyle=orthogonalEdgeStyle;rounded=0;orthogonalLoop=1;jettySize=auto;html=1;exitX=1;exitY=0.5;exitDx=0;exitDy=0;entryX=0;entryY=0.5;entryDx=0;entryDy=0;" parent="1" source="Mtznmg6a9FA5QhOzfQ1I-29" target="Mtznmg6a9FA5QhOzfQ1I-35" edge="1">
          <mxGeometry relative="1" as="geometry" />
        </mxCell>
        <mxCell id="Mtznmg6a9FA5QhOzfQ1I-39" style="edgeStyle=orthogonalEdgeStyle;rounded=0;orthogonalLoop=1;jettySize=auto;html=1;exitX=1;exitY=0.5;exitDx=0;exitDy=0;entryX=0;entryY=0.5;entryDx=0;entryDy=0;" parent="1" source="Mtznmg6a9FA5QhOzfQ1I-30" target="Mtznmg6a9FA5QhOzfQ1I-35" edge="1">
          <mxGeometry relative="1" as="geometry">
            <Array as="points">
              <mxPoint x="737" y="515" />
              <mxPoint x="737" y="395" />
            </Array>
          </mxGeometry>
        </mxCell>
        <mxCell id="Mtznmg6a9FA5QhOzfQ1I-41" style="edgeStyle=orthogonalEdgeStyle;rounded=0;orthogonalLoop=1;jettySize=auto;html=1;exitX=1;exitY=0.5;exitDx=0;exitDy=0;" parent="1" source="Mtznmg6a9FA5QhOzfQ1I-35" target="Mtznmg6a9FA5QhOzfQ1I-40" edge="1">
          <mxGeometry relative="1" as="geometry" />
        </mxCell>
        <mxCell id="Mtznmg6a9FA5QhOzfQ1I-43" value="采集中心" style="swimlane;startSize=20;" parent="1" vertex="1">
          <mxGeometry x="1086" y="180" width="120" height="400" as="geometry" />
        </mxCell>
        <mxCell id="Mtznmg6a9FA5QhOzfQ1I-48" style="edgeStyle=orthogonalEdgeStyle;rounded=0;orthogonalLoop=1;jettySize=auto;html=1;exitX=0.5;exitY=1;exitDx=0;exitDy=0;" parent="Mtznmg6a9FA5QhOzfQ1I-43" source="Mtznmg6a9FA5QhOzfQ1I-44" target="Mtznmg6a9FA5QhOzfQ1I-47" edge="1">
          <mxGeometry relative="1" as="geometry" />
        </mxCell>
        <mxCell id="Mtznmg6a9FA5QhOzfQ1I-44" value="测试校验" style="rounded=1;whiteSpace=wrap;html=1;align=center;" parent="Mtznmg6a9FA5QhOzfQ1I-43" vertex="1">
          <mxGeometry x="13" y="150" width="94" height="50" as="geometry" />
        </mxCell>
        <mxCell id="Mtznmg6a9FA5QhOzfQ1I-47" value="测试报告" style="rounded=1;whiteSpace=wrap;html=1;align=center;" parent="Mtznmg6a9FA5QhOzfQ1I-43" vertex="1">
          <mxGeometry x="13" y="230" width="94" height="50" as="geometry" />
        </mxCell>
        <mxCell id="Mtznmg6a9FA5QhOzfQ1I-45" style="edgeStyle=orthogonalEdgeStyle;rounded=0;orthogonalLoop=1;jettySize=auto;html=1;exitX=1;exitY=0.5;exitDx=0;exitDy=0;entryX=0;entryY=0.5;entryDx=0;entryDy=0;" parent="1" source="Mtznmg6a9FA5QhOzfQ1I-40" target="Mtznmg6a9FA5QhOzfQ1I-42" edge="1">
          <mxGeometry relative="1" as="geometry" />
        </mxCell>
        <mxCell id="Mtznmg6a9FA5QhOzfQ1I-46" style="edgeStyle=orthogonalEdgeStyle;rounded=0;orthogonalLoop=1;jettySize=auto;html=1;exitX=1;exitY=0.5;exitDx=0;exitDy=0;entryX=0;entryY=0.5;entryDx=0;entryDy=0;" parent="1" source="Mtznmg6a9FA5QhOzfQ1I-42" target="Mtznmg6a9FA5QhOzfQ1I-44" edge="1">
          <mxGeometry relative="1" as="geometry">
            <mxPoint x="1100" y="395" as="targetPoint" />
          </mxGeometry>
        </mxCell>
      </root>
    </mxGraphModel>
  </diagram>
</mxfile>
